<svg width="60" height="61" viewBox="0 0 60 61" fill="none" xmlns="http://www.w3.org/2000/svg">
<path fill-rule="evenodd" clip-rule="evenodd" d="M30 60.5C33.9397 60.5 37.8407 59.724 41.4805 58.2164C45.1203 56.7087 48.4274 54.499 51.2132 51.7132C53.999 48.9274 56.2087 45.6203 57.7164 41.9805C59.224 38.3407 60 34.4397 60 30.5C60 26.5603 59.224 22.6593 57.7164 19.0195C56.2087 15.3797 53.999 12.0726 51.2132 9.2868C48.4274 6.50104 45.1203 4.29125 41.4805 2.78361C37.8407 1.27597 33.9397 0.5 30 0.5C22.0435 0.5 14.4129 3.6607 8.7868 9.2868C3.16071 14.9129 0 22.5435 0 30.5C0 38.4565 3.16071 46.0871 8.7868 51.7132C14.4129 57.3393 22.0435 60.5 30 60.5ZM29.2267 42.6333L45.8933 22.6333L40.7733 18.3667L26.44 35.5633L19.0233 28.1433L14.31 32.8567L24.31 42.8567L26.89 45.4367L29.2267 42.6333Z" fill="#039855"/>
</svg>
