<svg width="14" height="14" viewBox="0 0 14 14" fill="none" xmlns="http://www.w3.org/2000/svg">
<path d="M12.3332 0.833577H11.6665L11.6665 9.50024H12.3332C12.6868 9.50024 13.0259 9.35977 13.276 9.10972C13.526 8.85967 13.6665 8.52053 13.6665 8.16691L13.6665 2.16691C13.6665 1.81329 13.526 1.47415 13.276 1.2241C13.0259 0.974053 12.6868 0.833577 12.3332 0.833577ZM1.6665 9.50024L6.33317 9.50024L5.58517 11.7456C5.51843 11.946 5.50025 12.1593 5.53212 12.3681C5.564 12.5769 5.64502 12.7752 5.76852 12.9465C5.89202 13.1179 6.05445 13.2574 6.24245 13.3537C6.43045 13.45 6.63862 13.5002 6.84984 13.5002H6.99984L10.3332 9.87491L10.3332 0.833577L2.99984 0.833577L0.391837 6.56424L0.333172 6.83358V8.16691C0.333172 8.52053 0.473647 8.85967 0.723696 9.10972C0.973744 9.35977 1.31288 9.50024 1.6665 9.50024Z" fill="#004AAD"/>
</svg>
