<svg width="33" height="32" viewBox="0 0 33 32" fill="none" xmlns="http://www.w3.org/2000/svg">
<path d="M29.6562 5.23125L17.6562 0.231252C17.2907 0.0796135 16.8989 0.00156021 16.5031 0.00156021C16.1074 0.00156021 15.7155 0.0796135 15.35 0.231252L3.35 5.23125C2.23125 5.69375 1.5 6.7875 1.5 8C1.5 20.4063 8.65625 28.9813 15.3438 31.7688C16.0813 32.075 16.9125 32.075 17.65 31.7688C23.0062 29.5375 31.5 21.8313 31.5 8C31.5 6.7875 30.7687 5.69375 29.6562 5.23125ZM16.5063 27.8938L16.5 4.08125L27.4937 8.6625C27.2875 18.125 22.3625 24.9813 16.5063 27.8938Z" fill="#004AAD"/>
</svg>
