<svg width="16" height="17" viewBox="0 0 16 17" fill="none" xmlns="http://www.w3.org/2000/svg">
<path d="M2.66671 14.5H3.33337V5.83331H2.66671C2.31309 5.83331 1.97395 5.97379 1.7239 6.22384C1.47385 6.47389 1.33337 6.81302 1.33337 7.16665V13.1666C1.33337 13.5203 1.47385 13.8594 1.7239 14.1095C1.97395 14.3595 2.31309 14.5 2.66671 14.5ZM13.3334 5.83331H8.66671L9.41471 3.58798C9.48145 3.38759 9.49963 3.17421 9.46776 2.96542C9.43588 2.75662 9.35486 2.55839 9.23136 2.38704C9.10786 2.2157 8.94543 2.07614 8.75743 1.97987C8.56943 1.8836 8.36125 1.83337 8.15004 1.83331H8.00004L4.66671 5.45865V14.5H12L14.608 8.76931L14.6667 8.49998V7.16665C14.6667 6.81302 14.5262 6.47389 14.2762 6.22384C14.0261 5.97379 13.687 5.83331 13.3334 5.83331Z" fill="#004AAD"/>
</svg>
