<svg width="80" height="81" viewBox="0 0 80 81" fill="none" xmlns="http://www.w3.org/2000/svg">
<path d="M37.0975 14.67L5.44747 69.495C4.17247 71.72 5.77247 74.52 8.34747 74.52H71.6475C74.2225 74.52 75.8225 71.745 74.5475 69.495L42.8975 14.67C41.5975 12.445 38.3975 12.445 37.0975 14.67Z" fill="#FFB02E"/>
<path d="M36.4974 54.245C36.5008 55.1733 36.8727 56.0622 37.5314 56.7162C37.8576 57.0401 38.2443 57.2965 38.6696 57.4709C39.0949 57.6452 39.5503 57.7341 40.0099 57.7325C40.4696 57.7309 40.9244 57.6387 41.3484 57.4613C41.7724 57.2839 42.1573 57.0247 42.4811 56.6985C42.805 56.3724 43.0614 55.9856 43.2358 55.5604C43.4102 55.1351 43.4991 54.6796 43.4974 54.22V31.32C43.4974 29.395 41.9474 27.82 39.9974 27.82C38.0724 27.82 36.4974 29.37 36.4974 31.32V54.245ZM43.4974 64.195C43.4974 65.1233 43.1287 66.0135 42.4723 66.6699C41.8159 67.3263 40.9257 67.695 39.9974 67.695C39.0692 67.695 38.1789 67.3263 37.5226 66.6699C36.8662 66.0135 36.4974 65.1233 36.4974 64.195C36.4974 63.2668 36.8662 62.3765 37.5226 61.7201C38.1789 61.0638 39.0692 60.695 39.9974 60.695C40.9257 60.695 41.8159 61.0638 42.4723 61.7201C43.1287 62.3765 43.4974 63.2668 43.4974 64.195Z" fill="black"/>
</svg>
