<svg width="80" height="80" viewBox="0 0 80 80" fill="none" xmlns="http://www.w3.org/2000/svg">
<path d="M55.125 75H24.875C16.65 75 10 68.35 10 60.125V30.075C10 21.75 16.75 15 25.075 15H54.95C63.25 15 70 21.75 70 30.075V60.15C70 68.35 63.35 75 55.125 75Z" fill="url(#paint0_radial_22_81)"/>
<path d="M10 30C10 26.0218 11.5804 22.2064 14.3934 19.3934C17.2064 16.5804 21.0218 15 25 15H30V75H25C21.0218 75 17.2064 73.4197 14.3934 70.6066C11.5804 67.7936 10 63.9782 10 60V30Z" fill="url(#paint1_linear_22_81)"/>
<path d="M10 60H70C70 63.9782 68.4197 67.7936 65.6066 70.6066C62.7936 73.4196 58.9782 75 55 75H25C21.0218 75 17.2064 73.4196 14.3934 70.6066C11.5804 67.7936 10 63.9782 10 60Z" fill="url(#paint2_linear_22_81)"/>
<path d="M50 15H55C58.9782 15 62.7936 16.5804 65.6066 19.3934C68.4196 22.2064 70 26.0218 70 30V60C70 63.9782 68.4196 67.7936 65.6066 70.6066C62.7936 73.4197 58.9782 75 55 75H50V15Z" fill="url(#paint3_radial_22_81)"/>
<path d="M8.75 9.875V32.625" stroke="url(#paint4_linear_22_81)" stroke-width="0.5" stroke-miterlimit="10"/>
<path d="M10 30V57.5C7.25 57.5 5 55.25 5 52.505V34.995C5 32.25 7.25 30 10 30Z" fill="url(#paint5_linear_22_81)"/>
<path d="M56.8825 46.25H23.1175C20.3023 46.2434 17.6044 45.1216 15.6144 43.1303C13.6245 41.1389 12.5046 38.4402 12.5 35.625C12.5046 32.8098 13.6245 30.1111 15.6144 28.1197C17.6044 26.1284 20.3023 25.0066 23.1175 25H56.8825C59.6977 25.0066 62.3956 26.1284 64.3856 28.1197C66.3755 30.1111 67.4954 32.8098 67.5 35.625C67.5 41.4525 62.705 46.25 56.8825 46.25Z" fill="url(#paint6_linear_22_81)"/>
<path d="M46.32 65H33.68C31.65 65 30 63.315 30 61.25C30 59.185 31.65 57.5 33.68 57.5H46.32C48.3475 57.5 50 59.185 50 61.25C50 63.315 48.35 65 46.32 65Z" fill="url(#paint7_linear_22_81)"/>
<path d="M8.75 12.5C9.24246 12.5 9.73009 12.403 10.1851 12.2145C10.64 12.0261 11.0534 11.7499 11.4017 11.4017C11.7499 11.0534 12.0261 10.64 12.2145 10.1851C12.403 9.73009 12.5 9.24246 12.5 8.75C12.5 8.25754 12.403 7.76991 12.2145 7.31494C12.0261 6.85997 11.7499 6.44657 11.4017 6.09835C11.0534 5.75013 10.64 5.47391 10.1851 5.28545C9.73009 5.097 9.24246 5 8.75 5C7.75544 5 6.80161 5.39509 6.09835 6.09835C5.39509 6.80161 5 7.75544 5 8.75C5 9.74456 5.39509 10.6984 6.09835 11.4017C6.80161 12.1049 7.75544 12.5 8.75 12.5Z" fill="url(#paint8_radial_22_81)"/>
<path d="M71.25 10V32.725" stroke="url(#paint9_linear_22_81)" stroke-width="0.5" stroke-miterlimit="10"/>
<path d="M71.25 12.75C72.2777 12.75 73.2633 12.3417 73.99 11.615C74.7167 10.8883 75.125 9.90271 75.125 8.875C75.125 7.84729 74.7167 6.86166 73.99 6.13496C73.2633 5.40826 72.2777 5 71.25 5C70.2223 5 69.2367 5.40826 68.51 6.13496C67.7833 6.86166 67.375 7.84729 67.375 8.875C67.375 9.90271 67.7833 10.8883 68.51 11.615C69.2367 12.3417 70.2223 12.75 71.25 12.75Z" fill="url(#paint10_radial_22_81)"/>
<path d="M23.75 30H22.5C19.7386 30 17.5 32.2386 17.5 35V40C17.5 42.7614 19.7386 45 22.5 45H23.75C26.5114 45 28.75 42.7614 28.75 40V35C28.75 32.2386 26.5114 30 23.75 30Z" fill="url(#paint11_radial_22_81)"/>
<path d="M52.5 30H51.25C48.4886 30 46.25 32.2386 46.25 35V40C46.25 42.7614 48.4886 45 51.25 45H52.5C55.2614 45 57.5 42.7614 57.5 40V35C57.5 32.2386 55.2614 30 52.5 30Z" fill="url(#paint12_radial_22_81)"/>
<path d="M48.75 7.5H31.25C29.1789 7.5 27.5 9.17893 27.5 11.25C27.5 13.3211 29.1789 15 31.25 15H48.75C50.8211 15 52.5 13.3211 52.5 11.25C52.5 9.17893 50.8211 7.5 48.75 7.5Z" fill="url(#paint13_linear_22_81)"/>
<path d="M48.75 7.5H31.25C29.1789 7.5 27.5 9.17893 27.5 11.25C27.5 13.3211 29.1789 15 31.25 15H48.75C50.8211 15 52.5 13.3211 52.5 11.25C52.5 9.17893 50.8211 7.5 48.75 7.5Z" fill="url(#paint14_radial_22_81)"/>
<path d="M70 57.35V29.825C72.75 29.825 75 32.075 75 34.825V52.35C75 55.1 72.75 57.35 70 57.35Z" fill="url(#paint15_linear_22_81)"/>
<path d="M28.75 33.125C28.75 31.3991 27.3509 30 25.625 30C23.8991 30 22.5 31.3991 22.5 33.125V39.375C22.5 41.1009 23.8991 42.5 25.625 42.5C27.3509 42.5 28.75 41.1009 28.75 39.375V33.125Z" fill="url(#paint16_linear_22_81)"/>
<path d="M28.75 33.125C28.75 31.3991 27.3509 30 25.625 30C23.8991 30 22.5 31.3991 22.5 33.125V39.375C22.5 41.1009 23.8991 42.5 25.625 42.5C27.3509 42.5 28.75 41.1009 28.75 39.375V33.125Z" fill="url(#paint17_radial_22_81)"/>
<path d="M57.5 33.125C57.5 31.3991 56.1009 30 54.375 30C52.6491 30 51.25 31.3991 51.25 33.125V39.375C51.25 41.1009 52.6491 42.5 54.375 42.5C56.1009 42.5 57.5 41.1009 57.5 39.375V33.125Z" fill="url(#paint18_linear_22_81)"/>
<path d="M57.5 33.125C57.5 31.3991 56.1009 30 54.375 30C52.6491 30 51.25 31.3991 51.25 33.125V39.375C51.25 41.1009 52.6491 42.5 54.375 42.5C56.1009 42.5 57.5 41.1009 57.5 39.375V33.125Z" fill="url(#paint19_radial_22_81)"/>
<g filter="url(#filter0_f_22_81)">
<path d="M9.0625 12.5V27.5" stroke="url(#paint20_linear_22_81)" stroke-width="0.125"/>
</g>
<g filter="url(#filter1_f_22_81)">
<path d="M71.5625 12.5V27.5" stroke="url(#paint21_linear_22_81)" stroke-width="0.125"/>
</g>
<path d="M72.5 37.5C73.8807 37.5 75 35.8211 75 33.75C75 31.6789 73.8807 30 72.5 30C71.1193 30 70 31.6789 70 33.75C70 35.8211 71.1193 37.5 72.5 37.5Z" fill="url(#paint22_radial_22_81)"/>
<path d="M72.5 52.5C73.8807 52.5 75 47.4632 75 41.25C75 35.0368 73.8807 30 72.5 30C71.1193 30 70 35.0368 70 41.25C70 47.4632 71.1193 52.5 72.5 52.5Z" fill="url(#paint23_radial_22_81)"/>
<path fill-rule="evenodd" clip-rule="evenodd" d="M49.4401 7.5625C50.1841 7.70161 50.8687 8.06263 51.4037 8.59808C51.9387 9.13353 52.2991 9.81835 52.4376 10.5625C52.3369 10.997 52.1217 11.3967 51.8145 11.72C51.5072 12.0434 51.119 12.2786 50.6902 12.4014C50.2614 12.5241 49.8075 12.5299 49.3757 12.4181C48.9439 12.3064 48.5498 12.0811 48.2344 11.7657C47.919 11.4503 47.6937 11.0562 47.582 10.6244C47.4702 10.1926 47.476 9.73874 47.5987 9.30991C47.7215 8.88108 47.9567 8.49291 48.2801 8.18565C48.6034 7.87839 49.0056 7.66323 49.4401 7.5625Z" fill="url(#paint24_radial_22_81)"/>
<defs>
<filter id="filter0_f_22_81" x="8.75" y="12.25" width="0.625" height="15.5" filterUnits="userSpaceOnUse" color-interpolation-filters="sRGB">
<feFlood flood-opacity="0" result="BackgroundImageFix"/>
<feBlend mode="normal" in="SourceGraphic" in2="BackgroundImageFix" result="shape"/>
<feGaussianBlur stdDeviation="0.125" result="effect1_foregroundBlur_22_81"/>
</filter>
<filter id="filter1_f_22_81" x="71.25" y="12.25" width="0.625" height="15.5" filterUnits="userSpaceOnUse" color-interpolation-filters="sRGB">
<feFlood flood-opacity="0" result="BackgroundImageFix"/>
<feBlend mode="normal" in="SourceGraphic" in2="BackgroundImageFix" result="shape"/>
<feGaussianBlur stdDeviation="0.125" result="effect1_foregroundBlur_22_81"/>
</filter>
<radialGradient id="paint0_radial_22_81" cx="0" cy="0" r="1" gradientUnits="userSpaceOnUse" gradientTransform="translate(62.4995 28.7504) rotate(141.911) scale(58.7632)">
<stop stop-color="#EEEBF0"/>
<stop offset="0.493" stop-color="#D1BEE3"/>
<stop offset="1" stop-color="#D0BCE2"/>
</radialGradient>
<linearGradient id="paint1_linear_22_81" x1="30" y1="45" x2="10" y2="45" gradientUnits="userSpaceOnUse">
<stop stop-color="#D5B2C0" stop-opacity="0"/>
<stop offset="1" stop-color="#B4878D"/>
</linearGradient>
<linearGradient id="paint2_linear_22_81" x1="40" y1="67.5" x2="40" y2="77.5" gradientUnits="userSpaceOnUse">
<stop stop-color="#B17EDB" stop-opacity="0"/>
<stop offset="1" stop-color="#A56BD6"/>
</linearGradient>
<radialGradient id="paint3_radial_22_81" cx="0" cy="0" r="1" gradientUnits="userSpaceOnUse" gradientTransform="translate(62.5 33.75) rotate(-5.71059) scale(12.5623 48.016)">
<stop stop-color="#F0EAF6"/>
<stop offset="1" stop-color="#E7E0EF" stop-opacity="0"/>
</radialGradient>
<linearGradient id="paint4_linear_22_81" x1="-nan" y1="-nan" x2="-nan" y2="-nan" gradientUnits="userSpaceOnUse">
<stop stop-color="#EA248A"/>
<stop offset="1" stop-color="#DF2232"/>
</linearGradient>
<linearGradient id="paint5_linear_22_81" x1="7.5" y1="30" x2="7.5" y2="57.5" gradientUnits="userSpaceOnUse">
<stop stop-color="#E93273"/>
<stop offset="1" stop-color="#D21844"/>
</linearGradient>
<linearGradient id="paint6_linear_22_81" x1="39.995" y1="44.2525" x2="39.995" y2="28.4775" gradientUnits="userSpaceOnUse">
<stop offset="0.006" stop-color="#443E75"/>
<stop offset="1" stop-color="#2F1A3B"/>
</linearGradient>
<linearGradient id="paint7_linear_22_81" x1="39.995" y1="64.215" x2="39.995" y2="57.2225" gradientUnits="userSpaceOnUse">
<stop offset="0.006" stop-color="#39325E"/>
<stop offset="1" stop-color="#2B1831"/>
</linearGradient>
<radialGradient id="paint8_radial_22_81" cx="0" cy="0" r="1" gradientUnits="userSpaceOnUse" gradientTransform="translate(10 7.5) rotate(104.036) scale(5.15388)">
<stop stop-color="#FF6C82"/>
<stop offset="0.441" stop-color="#FF2455"/>
<stop offset="1" stop-color="#D9206C"/>
</radialGradient>
<linearGradient id="paint9_linear_22_81" x1="-nan" y1="-nan" x2="-nan" y2="-nan" gradientUnits="userSpaceOnUse">
<stop stop-color="#EA248A"/>
<stop offset="1" stop-color="#DF2232"/>
</linearGradient>
<radialGradient id="paint10_radial_22_81" cx="0" cy="0" r="1" gradientUnits="userSpaceOnUse" gradientTransform="translate(72.54 7.58221) rotate(104.036) scale(5.32567 5.32567)">
<stop stop-color="#FF6C82"/>
<stop offset="0.441" stop-color="#FF2455"/>
<stop offset="1" stop-color="#D9206C"/>
</radialGradient>
<radialGradient id="paint11_radial_22_81" cx="0" cy="0" r="1" gradientUnits="userSpaceOnUse" gradientTransform="translate(23.75 37.5) rotate(168.69) scale(6.37377 8.72279)">
<stop stop-color="#322649"/>
<stop offset="1" stop-color="#342950" stop-opacity="0"/>
</radialGradient>
<radialGradient id="paint12_radial_22_81" cx="0" cy="0" r="1" gradientUnits="userSpaceOnUse" gradientTransform="translate(52.5 37.5) rotate(168.69) scale(6.37377 8.72279)">
<stop stop-color="#322649"/>
<stop offset="1" stop-color="#342950" stop-opacity="0"/>
</radialGradient>
<linearGradient id="paint13_linear_22_81" x1="40" y1="7.5" x2="36.25" y2="16.25" gradientUnits="userSpaceOnUse">
<stop stop-color="#FFCE2B"/>
<stop offset="1" stop-color="#D9862D"/>
</linearGradient>
<radialGradient id="paint14_radial_22_81" cx="0" cy="0" r="1" gradientUnits="userSpaceOnUse" gradientTransform="translate(40 10) rotate(90) scale(7.5 25)">
<stop offset="0.431" stop-color="#CA7E29" stop-opacity="0"/>
<stop offset="1" stop-color="#673F13"/>
</radialGradient>
<linearGradient id="paint15_linear_22_81" x1="72.5" y1="29.825" x2="72.5" y2="57.35" gradientUnits="userSpaceOnUse">
<stop stop-color="#FF30AA"/>
<stop offset="1" stop-color="#FF2353"/>
</linearGradient>
<linearGradient id="paint16_linear_22_81" x1="28.75" y1="35" x2="22.5" y2="35" gradientUnits="userSpaceOnUse">
<stop stop-color="#29B6FE"/>
<stop offset="1" stop-color="#1769A8"/>
</linearGradient>
<radialGradient id="paint17_radial_22_81" cx="0" cy="0" r="1" gradientUnits="userSpaceOnUse" gradientTransform="translate(27.5 33.75) rotate(90) scale(6.25 2.85983)">
<stop stop-color="#54C8FF"/>
<stop offset="1" stop-color="#54C8FF" stop-opacity="0"/>
</radialGradient>
<linearGradient id="paint18_linear_22_81" x1="57.5" y1="35" x2="51.25" y2="35" gradientUnits="userSpaceOnUse">
<stop stop-color="#29B6FE"/>
<stop offset="1" stop-color="#1769A8"/>
</linearGradient>
<radialGradient id="paint19_radial_22_81" cx="0" cy="0" r="1" gradientUnits="userSpaceOnUse" gradientTransform="translate(56.25 33.75) rotate(90) scale(6.25 2.85983)">
<stop stop-color="#54C8FF"/>
<stop offset="1" stop-color="#54C8FF" stop-opacity="0"/>
</radialGradient>
<linearGradient id="paint20_linear_22_81" x1="-nan" y1="-nan" x2="-nan" y2="-nan" gradientUnits="userSpaceOnUse">
<stop stop-color="#FF96CB"/>
<stop offset="1" stop-color="#FF6DB7" stop-opacity="0"/>
</linearGradient>
<linearGradient id="paint21_linear_22_81" x1="-nan" y1="-nan" x2="-nan" y2="-nan" gradientUnits="userSpaceOnUse">
<stop stop-color="#FF96CB"/>
<stop offset="1" stop-color="#FF6DB7" stop-opacity="0"/>
</linearGradient>
<radialGradient id="paint22_radial_22_81" cx="0" cy="0" r="1" gradientUnits="userSpaceOnUse" gradientTransform="translate(72.5 33.75) rotate(90) scale(3.75 2.5)">
<stop stop-color="#FF72C1"/>
<stop offset="1" stop-color="#FF6EBF" stop-opacity="0"/>
</radialGradient>
<radialGradient id="paint23_radial_22_81" cx="0" cy="0" r="1" gradientUnits="userSpaceOnUse" gradientTransform="translate(72.5 41.25) rotate(90) scale(11.25 1.3986)">
<stop stop-color="#FF4B9C"/>
<stop offset="1" stop-color="#FF73C1" stop-opacity="0"/>
</radialGradient>
<radialGradient id="paint24_radial_22_81" cx="0" cy="0" r="1" gradientUnits="userSpaceOnUse" gradientTransform="translate(50.0001 10) rotate(90) scale(2.5)">
<stop stop-color="#FFEA60"/>
<stop offset="1" stop-color="#FFEF66" stop-opacity="0"/>
</radialGradient>
</defs>
</svg>
